<?xml version="1.0" encoding="UTF-8" standalone="no"?>
<!-- Uploaded to: SVG Repo, www.svgrepo.com, Generator: SVG Repo Mixer Tools -->

<svg
   width="24"
   height="24"
   viewBox="0 0 0.72 0.72"
   fill="none"
   version="1.1"
   id="svg43"
   sodipodi:docname="openlittermap.svg"
   inkscape:version="1.2.2 (b0a8486541, 2022-12-01)"
   xmlns:inkscape="http://www.inkscape.org/namespaces/inkscape"
   xmlns:sodipodi="http://sodipodi.sourceforge.net/DTD/sodipodi-0.dtd"
   xmlns="http://www.w3.org/2000/svg"
   xmlns:svg="http://www.w3.org/2000/svg">
  <defs
     id="defs47" />
  <sodipodi:namedview
     id="namedview45"
     pagecolor="#ffffff"
     bordercolor="#000000"
     borderopacity="0.25"
     inkscape:showpageshadow="2"
     inkscape:pageopacity="0.0"
     inkscape:pagecheckerboard="0"
     inkscape:deskcolor="#d1d1d1"
     showgrid="false"
     inkscape:zoom="3.72505"
     inkscape:cx="96.106092"
     inkscape:cy="-16.778298"
     inkscape:window-width="1920"
     inkscape:window-height="1008"
     inkscape:window-x="0"
     inkscape:window-y="0"
     inkscape:window-maximized="1"
     inkscape:current-layer="svg43" />
  <path
     d="m 0.57596725,0.14401637 -0.028828,0.4323989 c -0.00252,0.03787 -0.00379,0.056807 -0.011965,0.071165 -0.0072,0.012641 -0.018066,0.022803 -0.031157,0.029148 -0.014869,0.00721 -0.033849,0.00721 -0.071805,0.00721 h -0.1444256 c -0.037956,0 -0.056934,0 -0.071805,-0.00721 -0.013092,-0.00635 -0.023954,-0.016507 -0.031156,-0.029148 -0.00818,-0.014358 -0.00944,-0.033295 -0.011967,-0.071165 l -0.028826,-0.4323989 m -0.071989,0 h 0.5759127 m -0.1439782,0 -0.00974,-0.029225 c -0.00944,-0.028321 -0.014164,-0.042482 -0.022918,-0.052951 -0.00773,-0.00925 -0.017659,-0.016401 -0.028875,-0.020812 -0.012702,-0.005 -0.027626,-0.005 -0.05748,-0.005 h -0.049932 c -0.029854,0 -0.044777,0 -0.057479,0.005 -0.011216,0.00441 -0.021144,0.011567 -0.028876,0.020812 -0.00876,0.010469 -0.013475,0.02463 -0.022916,0.052951 l -0.00974,0.029225"
     stroke="#000000"
     stroke-width="0.0719891"
     stroke-linecap="round"
     stroke-linejoin="round"
     id="path41" />
</svg>
